<svg width="32" height="33" viewBox="0 0 32 33" fill="none" xmlns="http://www.w3.org/2000/svg">
<path fill-rule="evenodd" clip-rule="evenodd" d="M0 16.1689C0 7.33239 7.16344 0.168945 16 0.168945C24.8366 0.168945 32 7.33239 32 16.1689C32 25.0055 24.8366 32.1689 16 32.1689C7.16344 32.1689 0 25.0055 0 16.1689Z" fill="#4E4D4D"/>
<path fill-rule="evenodd" clip-rule="evenodd" d="M24.5335 16.1572C24.5335 16.7343 24.4747 17.3106 24.3593 17.8724C24.2468 18.4208 24.0801 18.9592 23.8618 19.4739C23.6485 19.9795 23.3839 20.4667 23.0747 20.921C22.7701 21.3725 22.4192 21.7961 22.0338 22.1822C21.6475 22.5667 21.2225 22.9166 20.7712 23.2224C20.3154 23.5295 19.8275 23.7937 19.3216 24.008C18.8061 24.2252 18.2665 24.3916 17.7186 24.5039C17.1561 24.6196 16.5777 24.6787 15.9997 24.6787C15.4214 24.6787 14.843 24.6196 14.2813 24.5039C13.7326 24.3916 13.1929 24.2252 12.6779 24.008C12.1721 23.7937 11.6837 23.5295 11.2278 23.2224C10.7766 22.9166 10.3516 22.5667 9.96611 22.1822C9.58027 21.7961 9.2294 21.3725 8.92439 20.921C8.61687 20.4667 8.35184 19.9794 8.13768 19.4739C7.9193 18.9592 7.75224 18.4208 7.63931 17.8724C7.52515 17.3106 7.4668 16.7343 7.4668 16.1572C7.4668 15.5797 7.52511 15.0022 7.63934 14.4417C7.75227 13.8933 7.91934 13.354 8.13771 12.8402C8.35187 12.3342 8.6169 11.8466 8.92442 11.3922C9.22943 10.9403 9.5803 10.5176 9.96614 10.131C10.3516 9.74653 10.7766 9.39747 11.2279 9.09206C11.6837 8.78372 12.1721 8.51954 12.6779 8.30482C13.193 8.08716 13.7326 7.92034 14.2814 7.80884C14.8431 7.69401 15.4214 7.63574 15.9998 7.63574C16.5777 7.63574 17.1561 7.69401 17.7186 7.80884C18.2665 7.92037 18.8061 8.0872 19.3216 8.30482C19.8275 8.51951 20.3154 8.78372 20.7713 9.09206C21.2225 9.39747 21.6476 9.74653 22.0338 10.131C22.4193 10.5176 22.7701 10.9403 23.0747 11.3922C23.3839 11.8466 23.6485 12.3343 23.8618 12.8402C24.0801 13.354 24.2468 13.8933 24.3593 14.4417C24.4747 15.0022 24.5335 15.5797 24.5335 16.1572ZM12.8904 9.57512C10.8582 10.5334 9.34143 12.4033 8.86848 14.6568C9.0606 14.6585 12.0974 14.6968 15.5963 13.7685C14.335 11.5307 12.9875 9.70456 12.8904 9.57512ZM16.2001 14.889C12.4479 16.0108 8.84724 15.93 8.71808 15.9251C8.71597 16.0033 8.71223 16.079 8.71223 16.1572C8.71223 18.0267 9.41851 19.731 10.5794 21.0196C10.5769 21.0159 12.5712 17.4829 16.5039 16.213C16.5989 16.1814 16.6956 16.1531 16.7914 16.1256C16.6085 15.7121 16.4089 15.2976 16.2001 14.889ZM20.8125 10.6957C19.5295 9.56596 17.8448 8.8807 15.9997 8.8807C15.4076 8.8807 14.833 8.95228 14.2825 9.08459C14.3917 9.23107 15.7605 11.0444 17.0068 13.3295C19.7566 12.3001 20.7945 10.7223 20.8125 10.6957ZM17.2882 17.3314C17.2719 17.3368 17.2557 17.3414 17.2398 17.3472C12.9401 18.844 11.536 21.8605 11.5208 21.8934C12.7579 22.8542 14.3097 23.4338 15.9998 23.4338C17.009 23.4338 17.9703 23.2286 18.8449 22.8571C18.737 22.2213 18.3136 19.9927 17.2882 17.3314ZM20.072 22.1922C21.7083 21.0896 22.8705 19.3387 23.1946 17.3106C23.0446 17.2623 21.0058 16.6178 18.6536 16.9944C19.6095 19.6174 19.9978 21.7536 20.072 22.1922ZM17.5678 14.4138C17.7369 14.7608 17.9007 15.114 18.0519 15.469C18.1057 15.5964 18.1582 15.7212 18.2095 15.846C20.7129 15.5314 23.1793 16.0607 23.2847 16.0823C23.2681 14.3572 22.6501 12.774 21.6276 11.5345C21.6138 11.554 20.445 13.2404 17.5678 14.4138Z" fill="white"/>
</svg>
