<svg width="32" height="33" viewBox="0 0 32 33" fill="none" xmlns="http://www.w3.org/2000/svg">
<path fill-rule="evenodd" clip-rule="evenodd" d="M0 16.1689C0 7.33239 7.16344 0.168945 16 0.168945C24.8366 0.168945 32 7.33239 32 16.1689C32 25.0055 24.8366 32.1689 16 32.1689C7.16344 32.1689 0 25.0055 0 16.1689Z" fill="#4E4D4D"/>
<path fill-rule="evenodd" clip-rule="evenodd" d="M16.0009 7.63574C13.6834 7.63574 13.3925 7.64588 12.4823 7.6873C11.5739 7.7289 10.9538 7.87272 10.4112 8.08375C9.84993 8.3017 9.37384 8.59326 8.89952 9.06776C8.42485 9.54207 8.13329 10.0182 7.91462 10.5792C7.70307 11.122 7.55906 11.7423 7.51818 12.6504C7.47746 13.5606 7.4668 13.8516 7.4668 16.1692C7.4668 18.4867 7.47711 18.7767 7.51835 19.6869C7.56013 20.5953 7.70395 21.2154 7.9148 21.758C8.13294 22.3193 8.4245 22.7954 8.89899 23.2697C9.37313 23.7444 9.84922 24.0366 10.4101 24.2546C10.9531 24.4656 11.5733 24.6094 12.4816 24.651C13.3918 24.6925 13.6825 24.7026 15.9999 24.7026C18.3176 24.7026 18.6075 24.6925 19.5178 24.651C20.4262 24.6094 21.047 24.4656 21.59 24.2546C22.151 24.0366 22.6264 23.7444 23.1006 23.2697C23.5752 22.7954 23.8668 22.3193 24.0855 21.7582C24.2952 21.2154 24.4392 20.5952 24.4819 19.6871C24.5228 18.7768 24.5335 18.4867 24.5335 16.1692C24.5335 13.8516 24.5228 13.5608 24.4819 12.6505C24.4392 11.7421 24.2952 11.122 24.0855 10.5794C23.8668 10.0182 23.5752 9.54207 23.1006 9.06776C22.6259 8.59309 22.1512 8.30153 21.5894 8.08375C21.0454 7.87272 20.425 7.7289 19.5165 7.6873C18.6063 7.64588 18.3165 7.63574 15.9983 7.63574H16.0009ZM15.2354 9.17351C15.4626 9.17316 15.7161 9.17351 16.0009 9.17351C18.2793 9.17351 18.5494 9.18169 19.4491 9.22258C20.2811 9.26062 20.7327 9.39965 21.0335 9.51645C21.4317 9.67112 21.7156 9.85601 22.0141 10.1547C22.3128 10.4533 22.4977 10.7378 22.6527 11.136C22.7695 11.4365 22.9087 11.888 22.9466 12.72C22.9875 13.6196 22.9963 13.8898 22.9963 16.1672C22.9963 18.4445 22.9875 18.7148 22.9466 19.6143C22.9085 20.4463 22.7695 20.8979 22.6527 21.1983C22.498 21.5966 22.3128 21.8801 22.0141 22.1786C21.7154 22.4773 21.4319 22.6622 21.0335 22.8169C20.733 22.9342 20.2811 23.0729 19.4491 23.1109C18.5495 23.1518 18.2793 23.1607 16.0009 23.1607C13.7223 23.1607 13.4522 23.1518 12.5527 23.1109C11.7207 23.0725 11.2691 22.9335 10.9681 22.8167C10.5699 22.662 10.2855 22.4771 9.98679 22.1784C9.68812 21.8798 9.50323 21.596 9.3482 21.1976C9.2314 20.8972 9.0922 20.4456 9.05433 19.6136C9.01344 18.7141 9.00527 18.4438 9.00527 16.1651C9.00527 13.8863 9.01344 13.6175 9.05433 12.7179C9.09238 11.8859 9.2314 11.4343 9.3482 11.1335C9.50287 10.7353 9.68812 10.4509 9.98679 10.1522C10.2855 9.85352 10.5699 9.66863 10.9681 9.5136C11.2689 9.39627 11.7207 9.2576 12.5527 9.21938C13.3399 9.18382 13.645 9.17316 15.2354 9.17138V9.17351ZM20.556 10.5904C19.9906 10.5904 19.532 11.0486 19.532 11.6141C19.532 12.1794 19.9906 12.6381 20.556 12.6381C21.1213 12.6381 21.58 12.1794 21.58 11.6141C21.58 11.0487 21.1213 10.5904 20.556 10.5904ZM16.0009 11.7869C13.5808 11.7869 11.6187 13.749 11.6187 16.1691C11.6187 18.5893 13.5808 20.5505 16.0009 20.5505C18.4211 20.5505 20.3825 18.5893 20.3825 16.1691C20.3825 13.749 18.4211 11.7869 16.0009 11.7869ZM16.0009 13.3247C17.5718 13.3247 18.8454 14.5981 18.8454 16.1691C18.8454 17.74 17.5718 19.0136 16.0009 19.0136C14.4299 19.0136 13.1564 17.74 13.1564 16.1691C13.1564 14.5981 14.4299 13.3247 16.0009 13.3247Z" fill="white"/>
</svg>
